<?xml version="1.0"?>
<svg xmlns="http://www.w3.org/2000/svg" xmlns:xlink="http://www.w3.org/1999/xlink" id="svg" version="1.1" viewBox="0, 0, 400,400" fill="#a48bb6">
  <g id="svgg">
    <path id="path0" d="M218.889 8.503 C 212.080 9.959,204.461 13.758,203.110 16.370 C 202.460 17.626,202.926 18.132,206.457 20.008 C 209.704 21.732,209.763 21.701,202.685 21.983 C 167.694 23.375,124.456 28.611,107.394 33.522 C 27.399 56.547,-13.063 244.959,43.525 330.934 C 64.541 362.865,101.666 383.887,147.778 389.967 C 204.136 397.397,266.456 381.503,311.481 348.215 C 354.619 316.323,377.031 274.686,382.291 216.667 C 387.992 153.772,358.430 89.031,307.687 53.286 C 305.598 51.815,302.639 49.579,301.111 48.317 C 292.692 41.365,279.266 33.657,262.458 26.128 C 248.253 19.764,237.359 14.454,231.106 10.845 C 225.387 7.545,224.324 7.341,218.889 8.503 M202.938 43.850 C 214.412 46.215,222.412 49.593,245.185 61.686 L 253.519 66.111 256.852 66.107 C 260.544 66.103,263.424 65.369,268.852 63.047 L 271.963 61.716 274.222 62.889 C 291.464 71.843,304.055 79.595,310.185 85.032 C 315.535 89.776,318.522 92.798,324.033 99.042 C 344.031 121.699,355.693 154.836,356.109 190.185 C 356.214 199.187,356.120 201.749,355.400 209.444 C 350.254 264.449,319.009 317.564,276.111 344.234 C 217.787 380.494,109.273 368.300,69.335 320.998 C 44.429 291.500,34.624 229.681,45.208 168.889 C 52.973 124.293,71.169 87.664,94.272 70.125 C 117.746 52.304,175.825 38.261,202.938 43.850 M130.100 147.960 C 112.924 151.074,114.234 179.364,131.706 182.637 C 144.570 185.046,153.403 175.219,150.553 161.667 C 148.435 151.599,140.257 146.118,130.100 147.960 M252.293 150.380 C 243.583 152.661,238.952 159.151,239.803 167.883 C 241.415 184.436,257.163 190.568,268.240 178.955 C 280.355 166.253,269.047 145.990,252.293 150.380 M94.259 211.461 C 88.618 213.770,93.256 237.362,102.015 250.915 C 135.861 303.281,239.114 311.128,278.399 264.319 C 286.826 254.278,292.774 240.317,293.932 227.861 C 294.459 222.193,290.157 222.215,286.040 227.900 C 259.802 264.143,212.178 278.530,162.779 265.138 C 131.088 256.547,108.033 238.518,101.113 216.916 C 99.436 211.681,97.495 210.137,94.259 211.461 " stroke="none" fill="#a48bb6" fill-rule="evenodd"/>
  </g>
</svg>
