<?xml version="1.0" standalone="no"?>
<!DOCTYPE svg PUBLIC "-//W3C//DTD SVG 1.0//EN" "http://www.w3.org/TR/2001/REC-SVG-20010904/DTD/svg10.dtd">
<svg xmlns="http://www.w3.org/2000/svg" xmlns:xlink="http://www.w3.org/1999/xlink" id="body_1" width="256" height="131">

<g transform="matrix(1 0 0 1 0 0)">
	<g>
		<g>
            <path d="M63.181664 4.1997585C 64.108086 2.6248493 65.31242 1.1117009 67.04174 0.37056693C 67.75199 0.24704464 68.46224 0.3088058 69.1725 0.3088058L69.1725 0.3088058L104.12931 0.3088058C 103.11025 1.173462 102.12208 2.0689988 101.4427 3.2424607C 99.65163 6.176116 98.44729 9.449457 97.33559 12.722798C 94.18577 22.604584 91.99325 32.764294 89.86249 42.924004C 88.90519 47.52521 87.97877 52.1573 87.11411 56.758503C 84.45838 71.828224 81.710014 86.867065 78.282265 101.78239C 76.6456 108.668755 74.97804 115.55513 72.44584 122.19445C 71.27238 124.942825 70.12979 127.87648 67.87551 129.9146C 67.35054 130.3778 66.82558 130.96454 66.08444 130.87189L66.08444 130.87189L35.20386 130.87189C 33.10398 130.81013 31.034983 130.99542 28.935102 130.77925C 30.324728 129.69843 31.559952 128.40144 32.362846 126.85742C 34.67889 122.4415 36.130276 117.65501 37.519905 112.8994C 39.681545 105.24101 41.41086 97.48999 43.047527 89.73896C 44.066586 84.64367 45.270927 79.579254 46.012062 74.45308C 46.845837 68.740166 48.111942 63.089024 49.131 57.406998C 50.73679 49.03836 52.435223 40.669724 54.31894 32.362846C 55.83209 25.877926 57.376118 19.423883 59.445114 13.093366C 60.464172 10.036188 61.575874 7.0098915 63.181664 4.1997585z" stroke="#A48BB6" stroke-width="0.09375" fill="#A48BB6" fill-rule="nonzero" />
            <path d="M104.12931 0.3088058C 105.02485 0.3088058 105.92039 0.27792522 106.815926 0.3088058C 108.79228 1.3587455 110.45983 3.0262969 111.386246 5.0952954C 112.621475 7.4422197 113.64053 9.912666 114.56695 12.444873C 117.65501 21.986973 119.75488 31.806997 121.85477 41.596138C 123.645836 50.366226 125.34427 59.16719 126.95006 67.99904C 127.073586 68.46224 126.91918 69.11073 127.53679 69.23426C 125.31339 80.84535 123.12087 92.487335 120.34161 104.00579C 118.82847 110.21278 117.22268 116.3889 114.937515 122.37974C 113.70229 125.37515 112.43619 128.6485 109.81134 130.77925C 108.14379 131.14983 106.939445 129.88371 105.92039 128.74113C 104.160194 126.486855 103.07938 123.83112 102.029434 121.17539C 98.539925 111.66418 96.409164 101.75151 94.24753 91.86972C 92.610855 84.18046 91.15947 76.429436 89.646324 68.70929C 88.96695 64.78745 88.04053 60.927383 87.515564 57.00555C 87.42292 56.943787 87.20676 56.820267 87.11411 56.758503C 87.97877 52.1573 88.90519 47.52521 89.86249 42.924004C 91.99325 32.764294 94.18577 22.604584 97.33559 12.722798C 98.44729 9.449457 99.65163 6.176116 101.4427 3.2424607C 102.12208 2.0689988 103.11025 1.173462 104.12931 0.3088058z" stroke="#A48BB6" stroke-width="0.09375" fill="#A48BB6" fill-rule="nonzero" />
            <path d="M142.76091 5.651146C 143.87262 3.520386 145.23137 1.1425815 147.64005 0.33968636C 159.89964 0.27792522 172.15923 0.3088058 184.41882 0.3088058C 183.27623 1.4513872 182.0719 2.5939686 181.29988 4.045356C 178.92207 8.306876 177.53246 13.031605 176.11194 17.694572C 172.46803 30.540892 169.90495 43.66514 167.46538 56.789383C 165.2111 69.72835 162.80241 82.66731 160.05405 95.54451C 158.63353 102.029434 157.15126 108.483475 155.26755 114.875755C 154.0632 118.82847 152.7971 122.812065 150.82076 126.486855C 149.86345 128.1544 148.75175 129.97636 146.9298 130.84102C 135.22606 130.93365 123.49143 130.84102 111.7877 130.87189C 111.139206 130.87189 110.45983 130.87189 109.81134 130.77925C 112.43619 128.6485 113.70229 125.37515 114.937515 122.37974C 117.22268 116.3889 118.82847 110.21278 120.34161 104.00579C 123.12087 92.487335 125.31339 80.84535 127.53679 69.23426C 130.2234 54.257175 133.03354 39.280098 136.61568 24.488298C 138.28323 18.09602 139.88902 11.611097 142.76091 5.651146z" stroke="#A48BB6" stroke-width="0.09375" fill="#A48BB6" fill-rule="nonzero" />
            <path d="M184.41882 0.3088058C 185.407 0.3088058 186.42606 0.27792522 187.41423 0.3088058C 189.02002 1.1425815 190.16261 2.5630882 191.18167 4.0144753C 192.84921 6.670205 193.89915 9.665621 194.97998 12.599277C 197.54306 20.473824 199.45766 28.564535 201.21785 36.655247C 203.56477 47.55609 205.60289 58.518696 207.61014 69.4813C 208.10422 72.106155 208.59831 74.76188 208.90712 77.41761C 209.03064 77.54114 209.27768 77.78818 209.37033 77.88082C 208.25862 79.42485 207.8263 81.27769 207.20868 83.03788C 205.26321 89.30663 203.9971 95.79156 202.91629 102.2456C 202.0825 107.31001 200.93993 112.343544 199.36502 117.22268C 198.19156 120.83571 196.77104 124.417854 194.42412 127.44415C 193.31242 128.89554 191.79927 130.00723 190.13173 130.74837C 187.56863 131.02629 186.0555 128.55585 184.82027 126.733894C 182.25717 122.25621 180.86755 117.253555 179.38528 112.37443C 174.50615 94.30929 171.32545 75.81182 167.8977 57.437878C 167.86682 57.15995 167.71242 56.912907 167.46538 56.789383C 169.90495 43.66514 172.46803 30.540892 176.11194 17.694572C 177.53246 13.031605 178.92207 8.306876 181.29988 4.045356C 182.0719 2.5939686 183.27623 1.4513872 184.41882 0.3088058z" stroke="#A48BB6" stroke-width="0.09375" fill="#A48BB6" fill-rule="nonzero" />
            <path d="M0.03088058 70.562126C 0.83377564 70.50036 1.6366707 70.37684 2.4704463 70.37684L2.4704463 70.37684L36.130276 70.37684C 37.550785 70.562126 39.03305 70.4386 40.391796 71.05621C 42.368153 71.85911 44.12835 73.21785 45.42533 74.91628C 45.579735 74.82365 45.85766 74.5766 46.012062 74.45308C 45.270927 79.579254 44.066586 84.64367 43.047527 89.73896C 41.41086 97.48999 39.681545 105.24101 37.519905 112.8994C 36.130276 117.65501 34.67889 122.4415 32.362846 126.85742C 31.559952 128.40144 30.324728 129.69843 28.935102 130.77925C 28.410133 130.87189 28.008686 130.50133 27.576357 130.2234C 26.12497 129.29698 25.291195 127.69119 24.395657 126.23981C 20.165018 116.605064 19.701809 105.95126 17.07696 95.8842C 15.749095 90.85066 14.112425 85.84801 11.703739 81.21592C 10.221472 78.43667 8.399517 75.78094 6.021713 73.650185C 4.26152 72.229675 2.2234018 71.08709 0.03088058 70.562126z" stroke="#A48BB6" stroke-width="0.09375" fill="#A48BB6" fill-rule="nonzero" />
            <path d="M212.08781 73.773705C 214.0333 71.581184 216.93607 70.19156 219.86972 70.31508L219.86972 70.31508L245.1918 70.31508C 248.71219 70.37684 252.26344 70.19156 255.78383 70.40772C 254.7339 71.11797 253.46779 71.3959 252.3561 71.98263C 248.49602 73.74282 245.1918 76.676476 243.09192 80.351265C 239.72594 86.218575 238.55247 92.95055 237.5643 99.55899C 236.57611 106.04391 236.607 112.744995 234.50711 119.04463C 233.08661 123.460556 230.92497 127.90736 227.18842 130.81013C 215.57732 130.93365 203.96622 130.84102 192.386 130.87189C 191.614 130.87189 190.87286 130.90277 190.13173 130.74837C 191.79927 130.00723 193.31242 128.89554 194.42412 127.44415C 196.77104 124.417854 198.19156 120.83571 199.36502 117.22268C 200.93993 112.343544 202.0825 107.31001 202.91629 102.2456C 203.9971 95.79156 205.26321 89.30663 207.20868 83.03788C 207.8263 81.27769 208.25862 79.42485 209.37033 77.88082C 210.29674 76.52207 210.91435 74.94717 212.08781 73.773705z" stroke="#A48BB6" stroke-width="0.09375" fill="#A48BB6" fill-rule="nonzero" />
		</g>
	</g>
</g>
</svg>