<?xml version="1.0"?>
<svg xmlns="http://www.w3.org/2000/svg" fill="#a48bb6" viewBox="0 0 50 50" width="24px" height="24px">
  <path d="M 14 3.9902344 C 8.4886661 3.9902344 4 8.4789008 4 13.990234 L 4 35.990234 C 4 41.501568 8.4886661 45.990234 14 45.990234 L 36 45.990234 C 41.511334 45.990234 46 41.501568 46 35.990234 L 46 13.990234 C 46 8.4789008 41.511334 3.9902344 36 3.9902344 L 14 3.9902344 z M 14 5.9902344 L 36 5.9902344 C 40.430666 5.9902344 44 9.5595687 44 13.990234 L 44 35.990234 C 44 40.4209 40.430666 43.990234 36 43.990234 L 14 43.990234 C 9.5693339 43.990234 6 40.4209 6 35.990234 L 6 13.990234 C 6 9.5595687 9.5693339 5.9902344 14 5.9902344 z M 39.666016 9.0019531 A 1.0001 1.0001 0 0 0 38.705078 10 C 38.705078 10.761678 38.541161 12.572013 36.611328 14.722656 C 34.681496 16.8733 30.918831 19.374424 23.625 21.216797 C 15.909106 23.16578 12.145261 27.918153 10.447266 32.125 C 8.74927 36.331847 9.015625 40.070312 9.015625 40.070312 A 1.0001 1.0001 0 0 0 10.988281 40.228516 C 11.924727 36.236201 13.657031 34.504581 16.46875 33.193359 C 19.280469 31.882138 23.233077 31.160143 28.113281 29.708984 C 34.336843 27.858173 37.830517 24.094015 39.533203 20.201172 C 41.190993 16.410977 41.194434 12.59826 40.697266 10.041016 C 40.697311 10.031716 40.705078 10.00917 40.705078 10 L 40.695312 10.001953 C 40.683862 9.9438531 40.695575 9.8496939 40.683594 9.7929688 A 1.0001 1.0001 0 0 0 39.666016 9.0019531 z M 38.785156 15.033203 C 38.621096 16.444973 38.344154 17.930344 37.701172 19.400391 C 37.203094 20.539143 36.525008 21.654575 35.658203 22.707031 C 33.983132 24.007775 30.47741 26.206963 25 27 C 19.912252 27.736963 14.605571 30.331799 12.091797 33.929688 C 12.071005 33.951431 12.048008 33.97027 12.027344 33.992188 C 12.157299 33.582608 12.130923 33.300669 12.302734 32.875 C 12.755004 31.754486 13.358559 30.600132 14.164062 29.482422 C 16.148992 27.293371 19.481908 25.088767 26.425781 23.298828 C 34.162828 21.321353 37.414374 17.821126 38.785156 15.033203 z"/>
</svg>
