<svg width="48" height="44" viewBox="0 0 44 44" fill="none" xmlns="http://www.w3.org/2000/svg">
<g id="adventure">
<g id="Group">
<path id="Vector" d="M22 41.9561C33.0457 41.9561 42 33.0017 42 21.9561C42 10.9104 33.0457 1.95605 22 1.95605C10.9543 1.95605 2 10.9104 2 21.9561C2 33.0017 10.9543 41.9561 22 41.9561Z" stroke="#568F96" stroke-width="3" stroke-miterlimit="10"/>
<path id="Vector_2" d="M22 5.28939V1.95605" stroke="#568F96" stroke-width="3" stroke-miterlimit="10"/>
<path id="Vector_3" d="M22 41.9559V38.6226" stroke="#568F96" stroke-width="3" stroke-miterlimit="10"/>
<path id="Vector_4" d="M38.6667 21.9561H42.0001" stroke="#568F96" stroke-width="3" stroke-miterlimit="10"/>
<path id="Vector_5" d="M2 21.9561H5.33333" stroke="#568F96" stroke-width="3" stroke-miterlimit="10"/>
</g>
<path id="Vector_6" d="M17.9999 17.9562L11.8333 32.1229L25.9999 25.9562L32.1666 11.7896L17.9999 17.9562ZM21.9999 24.4562C20.6666 24.4562 19.4999 23.2896 19.4999 21.9562C19.4999 20.6229 20.6666 19.4562 21.9999 19.4562C23.3333 19.4562 24.4999 20.6229 24.4999 21.9562C24.4999 23.2896 23.3333 24.4562 21.9999 24.4562Z" fill="#568F96"/>
</g>
</svg>
