<svg width="48" height="44" viewBox="0 0 44 41" fill="none" xmlns="http://www.w3.org/2000/svg">
<g id="animal">
<path id="Vector" d="M34.1576 10.6579L28.8372 2.97246C28.4429 2.40404 27.9187 1.93777 27.3083 1.6123C26.6978 1.28683 26.0186 1.11152 25.3268 1.10091L15.2301 0.956055H15.2093C9.99658 0.956055 5.99708 1.82796 3.42119 6.08322C1.02301 10.0442 0 16.7914 0 28.6438V30.0923H3.30956L1.17908 40.9561H4.13132L6.2618 30.0923H7.24252C9.60827 30.1134 11.8874 29.2031 13.5877 27.5581C15.1248 26.0873 16.2336 24.0752 16.7942 21.7393L16.7993 21.7183L19.2838 9.81321H16.3243L13.9724 21.0833C13.2561 24.0419 11.1142 27.1953 7.24252 27.1953H2.90244C2.98111 16.9411 3.91477 10.8617 5.89949 7.58305C7.56527 4.83089 10.0001 3.85397 15.1993 3.85261L25.2852 3.99746C25.5158 4.00097 25.7422 4.05939 25.9457 4.16789C26.1492 4.27638 26.3239 4.43182 26.4553 4.62131L32.4737 13.3141L40.5581 14.6615V16.1969L39.2099 23.387C38.812 25.5091 38.1319 26.5781 35.3426 26.9132L23.9079 28.8695L23.8323 40.9561H26.7293L26.7897 31.3151L35.7252 29.7851C37.7495 29.5362 39.243 28.8839 40.2903 27.7913C41.1857 26.8572 41.7306 25.6638 42.0574 23.9209L43.4551 16.4661V12.2074L34.1576 10.6579Z" fill="#568F96"/>
</g>
</svg>
