<svg width="48" height="44" viewBox="0 0 40 41" fill="none" xmlns="http://www.w3.org/2000/svg">
<path id="Vector" fill-rule="evenodd" clip-rule="evenodd" d="M11.1681 6.54763C12.7331 3.24352 16.0979 0.956055 20 0.956055C23.9021 0.956055 27.267 3.24352 28.8318 6.54763C28.9879 6.54087 29.1447 6.53745 29.3023 6.53745C35.2104 6.53745 40 11.327 40 17.2351C40 21.2921 37.742 24.8188 34.4186 26.632V32.2156C34.4186 33.8872 34.4188 35.2811 34.27 36.3877C34.1129 37.5557 33.7674 38.6102 32.92 39.4575C32.0727 40.3049 31.0182 40.6504 29.8502 40.8074C28.7436 40.9562 27.3498 40.9561 25.6781 40.9561H14.3219C12.6503 40.9561 11.2564 40.9562 10.1498 40.8074C8.98182 40.6504 7.92731 40.3049 7.07993 39.4575C6.23254 38.6102 5.88711 37.5557 5.73006 36.3877C5.58128 35.2811 5.58134 33.8872 5.5814 32.2156V26.632C2.25806 24.8188 0 21.2921 0 17.2351C0 11.327 4.78951 6.53745 10.6977 6.53745C10.8552 6.53745 11.0121 6.54087 11.1681 6.54763ZM10.3305 9.33652C6.13403 9.52837 2.7907 12.9913 2.7907 17.2351C2.7907 20.4753 4.73989 23.2634 7.53541 24.4848C8.04363 24.7068 8.37209 25.2089 8.37209 25.7635V30.7235H31.6279V25.7635C31.6279 25.2089 31.9563 24.7068 32.4646 24.4848C35.2601 23.2634 37.2093 20.4753 37.2093 17.2351C37.2093 12.9913 33.866 9.52835 29.6696 9.33652C29.7341 9.79001 29.7674 10.2531 29.7674 10.7235V11.6537C29.7674 12.4244 29.1427 13.0491 28.3721 13.0491C27.6015 13.0491 26.9767 12.4244 26.9767 11.6537V10.7235C26.9767 9.9368 26.8471 9.18325 26.6091 8.48138C25.6748 5.72632 23.0668 3.74675 20 3.74675C16.9332 3.74675 14.3252 5.72632 13.3909 8.48138C13.1529 9.18325 13.0233 9.9368 13.0233 10.7235V11.6537C13.0233 12.4244 12.3985 13.0491 11.6279 13.0491C10.8573 13.0491 10.2326 12.4244 10.2326 11.6537V10.7235C10.2326 10.2531 10.2659 9.79001 10.3305 9.33652ZM31.6246 33.5142H8.37546C8.38333 34.5735 8.40945 35.373 8.49589 36.0158C8.61131 36.8744 8.81079 37.2418 9.05325 37.4842C9.29568 37.7267 9.66313 37.9261 10.5217 38.0416C11.4203 38.1624 12.6251 38.1654 14.4186 38.1654H25.5814C27.3749 38.1654 28.5797 38.1624 29.4783 38.0416C30.3369 37.9261 30.7044 37.7267 30.9468 37.4842C31.1892 37.2418 31.3887 36.8744 31.5042 36.0158C31.5905 35.373 31.6167 34.5735 31.6246 33.5142Z" fill="#568F96"/>
</svg>
