<svg width="40" height="40" viewBox="0 0 40 40" fill="none" xmlns="http://www.w3.org/2000/svg">
<g id="codepen">
<path id="Vector" d="M20.0006 0C8.95462 0 0.000488281 8.95429 0.000488281 20.0002C0.000488281 31.0462 8.95462 40 20.0006 40C31.0464 40 40.0005 31.0462 40.0005 20.0002C40.0005 8.95429 31.0464 0 20.0006 0ZM20.0006 36.7155C10.7837 36.7155 3.28534 29.2169 3.28534 20.0002C3.28534 10.7836 10.7837 3.28485 20.0006 3.28485C29.2174 3.28485 36.7157 10.7836 36.7157 20.0002C36.7157 29.2169 29.2174 36.7155 20.0006 36.7155ZM32.3574 16.0938C32.3552 16.0782 32.3512 16.0632 32.3487 16.0477C32.3435 16.0176 32.3379 15.9876 32.3302 15.9584C32.3256 15.9408 32.319 15.924 32.3135 15.9071C32.3051 15.881 32.2965 15.855 32.2863 15.8297C32.2789 15.8121 32.2705 15.7946 32.2624 15.7777C32.2512 15.7535 32.2396 15.7302 32.2263 15.7075C32.2165 15.6905 32.2061 15.6742 32.196 15.658C32.1818 15.6359 32.1671 15.6143 32.1511 15.5936C32.1395 15.5779 32.1271 15.5624 32.1147 15.5473C32.0979 15.5279 32.0803 15.5083 32.0616 15.4902C32.0477 15.4759 32.0339 15.4616 32.0194 15.4485C31.9999 15.431 31.9797 15.414 31.9592 15.3979C31.9433 15.3855 31.9277 15.3732 31.911 15.3614C31.9049 15.3575 31.8994 15.3523 31.8936 15.3483L20.5899 7.8126C20.2327 7.57456 19.7679 7.57456 19.4108 7.8126L8.10726 15.3483C8.10139 15.3523 8.09583 15.3575 8.08972 15.3614C8.07305 15.3731 8.05747 15.3855 8.0419 15.3979C8.02108 15.414 8.00088 15.4311 7.98178 15.4485C7.96675 15.4616 7.95313 15.4759 7.9392 15.4902C7.92064 15.5083 7.90319 15.5279 7.88652 15.5473C7.87384 15.5623 7.86147 15.5779 7.8498 15.5936C7.83423 15.6144 7.81912 15.6359 7.80518 15.658C7.79446 15.6742 7.78444 15.6905 7.77466 15.7075C7.76158 15.7302 7.74992 15.7536 7.73849 15.7777C7.73035 15.7946 7.72198 15.8121 7.71477 15.8297C7.70436 15.855 7.69591 15.881 7.68738 15.9071C7.68182 15.924 7.67571 15.9409 7.67086 15.9584C7.66295 15.9876 7.65779 16.0176 7.65223 16.0477C7.64972 16.0632 7.64573 16.0782 7.64385 16.0938C7.63759 16.1393 7.63407 16.1855 7.63407 16.2324V23.7681C7.63407 23.815 7.63759 23.8611 7.64385 23.9074C7.64581 23.9223 7.64972 23.9379 7.65223 23.9528C7.65779 23.9829 7.66295 24.0128 7.67086 24.042C7.67579 24.0596 7.6819 24.0765 7.68738 24.0934C7.69591 24.1194 7.70436 24.1454 7.71477 24.1714C7.72198 24.1891 7.73035 24.2059 7.73849 24.2229C7.74992 24.2469 7.76158 24.2702 7.77466 24.2937C7.78444 24.3101 7.79438 24.3262 7.80518 24.3425C7.8192 24.3646 7.83423 24.3861 7.8498 24.407C7.86147 24.4232 7.87384 24.438 7.88652 24.4531C7.90319 24.4726 7.92072 24.4921 7.9392 24.5104C7.95321 24.5246 7.96683 24.5389 7.98178 24.5518C8.00088 24.5695 8.02108 24.5864 8.0419 24.6027C8.05747 24.615 8.07305 24.6273 8.08972 24.6391C8.09583 24.643 8.10139 24.6481 8.10726 24.6521L19.4108 32.1879C19.5894 32.3069 19.795 32.3667 20.0006 32.3667C20.2057 32.3667 20.4114 32.3068 20.5899 32.1879L31.8936 24.6521C31.8994 24.6481 31.9049 24.643 31.911 24.6391C31.9277 24.6274 31.9433 24.615 31.9592 24.6027C31.9797 24.5864 31.9999 24.5695 32.0194 24.5518C32.034 24.5389 32.0477 24.5245 32.0616 24.5104C32.0803 24.4921 32.0979 24.4726 32.1147 24.4531C32.1271 24.4381 32.1394 24.4232 32.1511 24.407C32.1671 24.3861 32.1819 24.3646 32.196 24.3425C32.2061 24.3262 32.2165 24.3101 32.2263 24.2937C32.2396 24.2702 32.2512 24.2468 32.2624 24.2229C32.2705 24.2059 32.2789 24.189 32.2863 24.1714C32.2965 24.1454 32.3051 24.1194 32.3135 24.0934C32.319 24.0765 32.3256 24.0596 32.3302 24.042C32.338 24.0128 32.3435 23.9829 32.3487 23.9528C32.3512 23.9379 32.3552 23.9223 32.3574 23.9074C32.3632 23.8611 32.3668 23.8149 32.3668 23.7681V16.2324C32.3668 16.1855 32.3632 16.1393 32.3574 16.0938ZM21.0633 10.6827L29.3903 16.2336L25.6709 18.7219L21.0633 15.6397V10.6827ZM18.9377 10.6827V15.6397L14.3304 18.7219L10.6106 16.2336L18.9377 10.6827ZM9.75978 18.2217L12.4187 20.0002L9.75978 21.7788V18.2217ZM18.9377 29.3177L10.6106 23.7667L14.3304 21.2791L18.9377 24.3607V29.3177ZM20.0006 22.5144L16.2416 20.0002L20.0006 17.4859L23.7594 20.0002L20.0006 22.5144ZM21.0633 29.3177V24.3607L25.6709 21.2791L29.3903 23.7667L21.0633 29.3177ZM30.2413 21.7788L27.5826 20.0002L30.2413 18.2217V21.7788Z" fill="#4A7B82"/>
</g>
</svg>
