<svg width="44" height="44" viewBox="0 0 44 44" fill="none" xmlns="http://www.w3.org/2000/svg">
<g id="github">
<path id="Vector" d="M21.9995 42C33.0451 42 41.9995 33.0456 41.9995 22C41.9995 10.9543 33.0451 2 21.9995 2C10.9538 2 1.99951 10.9543 1.99951 22C1.99951 33.0456 10.9538 42 21.9995 42Z" stroke="#4A7B82" stroke-width="3" stroke-linecap="round" stroke-linejoin="round"/>
<path id="Vector_2" d="M26.6662 36V32.274C26.7162 31.655 26.6304 31.0326 26.4142 30.4484C26.1982 29.8642 25.8568 29.3314 25.413 28.8856C29.5996 28.4312 33.9996 26.8862 33.9996 19.7978C33.9992 17.9851 33.2832 16.242 31.9996 14.9292C32.6074 13.3434 32.5644 11.5906 31.8796 10.0348C31.8796 10.0348 30.3062 9.5804 26.6662 11.9562C23.6102 11.1498 20.389 11.1498 17.333 11.9562C13.693 9.5804 12.1196 10.0348 12.1196 10.0348C11.4348 11.5906 11.3918 13.3434 11.9996 14.9292C10.7065 16.2518 9.98965 18.0106 9.99961 19.8366C9.99961 26.8732 14.3996 28.4182 18.5862 28.9244C18.1476 29.3658 17.8093 29.8922 17.5934 30.4694C17.3774 31.0464 17.2887 31.6612 17.333 32.274V36" stroke="#4A7B82" stroke-width="3" stroke-linecap="round" stroke-linejoin="round"/>
<path id="Vector_3" d="M17.3329 33.4036C13.3329 34.667 9.99951 33.4036 7.99951 29.5088" stroke="#4A7B82" stroke-width="3" stroke-linecap="round" stroke-linejoin="round"/>
</g>
</svg>
