<svg width="48" height="44" viewBox="0 0 40 41" fill="none" xmlns="http://www.w3.org/2000/svg">
<g id="language">
<path id="Vector" d="M33.3333 4.28955H15.5555V9.84511H17.7777V6.51177H33.3333C33.9999 6.51177 34.4444 6.95622 34.4444 7.62288V19.8451C34.4444 20.5118 33.9999 20.9562 33.3333 20.9562H18.8888V28.734H12.9999L8.88883 31.9562V28.734H5.5555C4.88883 28.734 4.44439 28.2896 4.44439 27.6229V15.4007C4.44439 14.734 4.88883 14.2896 5.5555 14.2896H19.9999V12.0673H5.5555C3.66661 12.0673 2.22217 13.5118 2.22217 15.4007V27.6229C2.22217 29.5118 3.66661 30.9562 5.5555 30.9562H6.66661V36.6229L13.6666 30.9562H21.1111V23.1784H33.3333C35.2222 23.1784 36.6666 21.734 36.6666 19.8451V7.62288C36.6666 5.734 35.2222 4.28955 33.3333 4.28955Z" fill="#568F96"/>
<path id="Vector_2" d="M6.88916 26.4006H9.55583L10.2225 24.6228H13.6669L14.3336 26.4006H17.0003L13.2225 16.5117H10.5558L6.88916 26.4006ZM11.8892 19.2895L13.0003 22.7339H10.778L11.8892 19.2895Z" fill="#568F96"/>
<path id="Vector_3" d="M22.2222 19.8448C23.4444 19.8448 25.1111 19.5114 26.6666 18.7337C28.2222 19.5114 29.9999 19.8448 31.1111 19.8448V17.6226C31.1111 17.6226 29.9999 17.6226 28.7777 17.1781C30.1111 15.8448 31.1111 13.8448 31.1111 10.9559V9.84478H27.7777V7.62256H25.5555V9.84478H22.2222V12.067H28.7777C28.5555 14.067 27.6666 15.2892 26.6666 16.067C25.9999 15.5114 25.3333 14.7337 24.8888 13.7337H22.5555C22.9999 15.1781 23.6666 16.2892 24.5555 17.1781C23.4444 17.6226 22.4444 17.6226 22.2222 17.6226V19.8448Z" fill="#568F96"/>
</g>
</svg>
