<svg width="40" height="40" viewBox="0 0 40 40" fill="none" xmlns="http://www.w3.org/2000/svg">
<g id="linkedin">
<path id="Vector" fill-rule="evenodd" clip-rule="evenodd" d="M34.086 34.0844H28.1538V24.8011C28.1538 22.5878 28.116 19.74 25.0716 19.74C21.9838 19.74 21.5127 22.1522 21.5127 24.6433V34.0844H15.5872V14.9956H21.2738V17.6056H21.356C22.1472 16.1044 24.0827 14.5222 26.9683 14.5222C32.976 14.5222 34.086 18.4744 34.086 23.6156V34.0844ZM8.89826 12.3878C6.99271 12.3878 5.45604 10.8467 5.45604 8.94667C5.45604 7.04778 6.99271 5.50667 8.89826 5.50667C10.796 5.50667 12.336 7.04778 12.336 8.94667C12.336 10.8467 10.796 12.3878 8.89826 12.3878ZM5.92715 34.0844H11.866V14.9956H5.92715V34.0844ZM37.0405 0H2.95049C1.32271 0 0.000488281 1.29111 0.000488281 2.88444V37.1133C0.000488281 38.7067 1.32271 40 2.95049 40H37.0405C38.6716 40 39.9994 38.7067 39.9994 37.1133V2.88444C39.9994 1.29111 38.6716 0 37.0405 0Z" fill="#4A7B82"/>
</g>
</svg>
