<svg width="48" height="44" viewBox="0 0 44 50" fill="none" xmlns="http://www.w3.org/2000/svg">
<g id="music">
<g id="Group">
<path id="Vector" d="M9.05884 47.665C12.9573 47.665 16.1177 44.5046 16.1177 40.6062C16.1177 36.7078 12.9573 33.5474 9.05884 33.5474C5.16037 33.5474 2 36.7078 2 40.6062C2 44.5046 5.16037 47.665 9.05884 47.665Z" stroke="#568F96" stroke-width="3" stroke-linecap="round" stroke-linejoin="round"/>
<path id="Vector_2" d="M41.9991 35.9005V8.2986C41.9991 2.41624 38.3113 1.60176 34.5782 2.61986L20.4606 6.46602C17.8814 7.16738 16.1167 9.20358 16.1167 12.1448V17.0543V20.3574V40.5837" stroke="#568F96" stroke-width="3" stroke-linecap="round" stroke-linejoin="round"/>
<path id="Vector_3" d="M34.9409 42.959C38.8393 42.959 41.9998 39.7988 41.9998 35.9001C41.9998 32.0017 38.8393 28.8413 34.9409 28.8413C31.0423 28.8413 27.8821 32.0017 27.8821 35.9001C27.8821 39.7988 31.0423 42.959 34.9409 42.959Z" stroke="#568F96" stroke-width="3" stroke-linecap="round" stroke-linejoin="round"/>
<path id="Vector_4" d="M16.1167 19.4294L41.9991 12.3706" stroke="#568F96" stroke-width="3" stroke-linecap="round" stroke-linejoin="round"/>
</g>
</g>
</svg>
